<svg width="192" height="192" viewBox="0 0 192 192" fill="none" xmlns="http://www.w3.org/2000/svg">
<path fill-rule="evenodd" clip-rule="evenodd" d="M62 112C53.1634 112 46 104.837 46 96C46 87.1634 53.1634 80 62 80C70.8366 80 78 87.1634 78 96V112H62ZM90 112V96C90 80.536 77.464 68 62 68C46.536 68 34 80.536 34 96C34 111.464 46.536 124 62 124H130C145.464 124 158 111.464 158 96C158 80.536 145.464 68 130 68C114.536 68 102 80.536 102 96V112H90ZM114 112H130C138.837 112 146 104.837 146 96C146 87.1634 138.837 80 130 80C121.163 80 114 87.1634 114 96V112Z" fill="white"/>
</svg>
